{
  "accessors": [
    {
      "bufferView": 2,
      "componentType": 5126,
      "count": 23059,
      "max": [
        44.276039123535156,
        20.301307678222656,
        -93.7530517578125
      ],
      "min": [
        -44.042945861816406,
        -13.019149780273438,
        -170.1499481201172
      ],
      "type": "VEC3"
    },
    {
      "bufferView": 2,
      "byteOffset": 276708,
      "componentType": 5126,
      "count": 23059,
      "max": [
        0.9999997615814209,
        0.9999974966049194,
        0.9999820590019226
      ],
      "min": [
        -0.9999972581863403,
        -0.9999906420707703,
        -0.997520923614502
      ],
      "type": "VEC3"
    },
    {
      "bufferView": 1,
      "componentType": 5126,
      "count": 23059,
      "max": [
        0.9942700266838074,
        0.9824299812316895
      ],
      "min": [
        0.005760000087320805,
        0.02181999944150448
      ],
      "type": "VEC2"
    },
    {
      "bufferView": 0,
      "componentType": 5125,
      "count": 133920,
      "type": "SCALAR"
    }
  ],
  "asset": {
    "extras": {
      "author": "friendswithkyle (https://sketchfab.com/friendswithkyle)",
      "license": "CC-BY-4.0 (http://creativecommons.org/licenses/by/4.0/)",
      "source": "https://sketchfab.com/3d-models/tshirt-295368d37851432a90488739d34cd076",
      "title": "TShirt"
    },
    "generator": "Sketchfab-13.17.0",
    "version": "2.0"
  },
  "bufferViews": [
    {
      "buffer": 0,
      "byteLength": 535680,
      "name": "floatBufferViews",
      "target": 34963
    },
    {
      "buffer": 0,
      "byteLength": 184472,
      "byteOffset": 535680,
      "byteStride": 8,
      "name": "floatBufferViews",
      "target": 34962
    },
    {
      "buffer": 0,
      "byteLength": 553416,
      "byteOffset": 720152,
      "byteStride": 12,
      "name": "floatBufferViews",
      "target": 34962
    }
  ],
  "buffers": [
    {
      "byteLength": 1273568,
      "uri": "scene.bin"
    }
  ],
  "images": [
    {
      "uri": "textures/Tshirt01Sub_baseColor.jpeg"
    }
  ],
  "materials": [
    {
      "doubleSided": true,
      "name": "Tshirt01Sub",
      "pbrMetallicRoughness": {
        "baseColorTexture": {
          "index": 0
        },
        "metallicFactor": 0.0
      }
    }
  ],
  "meshes": [
    {
      "name": "Object_0",
      "primitives": [
        {
          "attributes": {
            "NORMAL": 1,
            "POSITION": 0,
            "TEXCOORD_0": 2
          },
          "indices": 3,
          "material": 0,
          "mode": 4
        }
      ]
    }
  ],
  "nodes": [
    {
      "children": [
        1
      ],
      "matrix": [
        1.0,
        0.0,
        0.0,
        0.0,
        0.0,
        2.220446049250313e-16,
        -1.0,
        0.0,
        0.0,
        1.0,
        2.220446049250313e-16,
        0.0,
        0.0,
        0.0,
        0.0,
        1.0
      ],
      "name": "Sketchfab_model"
    },
    {
      "children": [
        2
      ],
      "name": "root"
    },
    {
      "children": [
        3
      ],
      "matrix": [
        1.0,
        0.0,
        0.0,
        0.0,
        0.0,
        2.220446049250313e-16,
        1.0,
        0.0,
        0.0,
        -1.0,
        2.220446049250313e-16,
        0.0,
        0.0,
        0.0,
        0.0,
        1.0
      ],
      "name": "GLTF_SceneRootNode"
    },
    {
      "children": [
        4
      ],
      "matrix": [
        0.009999999776482582,
        0.0,
        0.0,
        0.0,
        0.0,
        -1.6858739316326353e-09,
        0.00999999977648244,
        0.0,
        0.0,
        -0.00999999977648244,
        -1.6858739316326353e-09,
        0.0,
        0.0,
        0.0,
        0.0,
        1.0
      ],
      "name": "Tshirt_2"
    },
    {
      "mesh": 0,
      "name": "Object_4"
    }
  ],
  "samplers": [
    {
      "magFilter": 9729,
      "minFilter": 9987,
      "wrapS": 10497,
      "wrapT": 10497
    }
  ],
  "scene": 0,
  "scenes": [
    {
      "name": "Sketchfab_Scene",
      "nodes": [
        0
      ]
    }
  ],
  "textures": [
    {
      "sampler": 0,
      "source": 0
    }
  ]
}
